{
    "asset" : {
        "generator" : "Khronos glTF Blender I/O v1.1.46",
        "version" : "2.0"
    },
    "scene" : 0,
    "scenes" : [
        {
            "name" : "Scene",
            "nodes" : [
                0
            ]
        }
    ],
    "nodes" : [
        {
            "mesh" : 0,
            "name" : "Char1",
            "rotation" : [
                0.7071068286895752,
                0,
                0,
                0.7071067094802856
            ]
        }
    ],
    "materials" : [
        {
            "doubleSided" : true,
            "emissiveFactor" : [
                0.005480644293129444,
                0.17220640182495117,
                0.4064438045024872
            ],
            "name" : "CharBase",
            "pbrMetallicRoughness" : {
                "baseColorFactor" : [
                    0.009441680274903774,
                    0.41184157133102417,
                    1,
                    1
                ],
                "metallicFactor" : 0,
                "roughnessFactor" : 1
            }
        }
    ],
    "meshes" : [
        {
            "name" : "Cube.001",
            "primitives" : [
                {
                    "attributes" : {
                        "POSITION" : 0,
                        "NORMAL" : 1,
                        "TEXCOORD_0" : 2
                    },
                    "indices" : 3,
                    "material" : 0
                }
            ]
        }
    ],
    "accessors" : [
        {
            "bufferView" : 0,
            "componentType" : 5126,
            "count" : 624,
            "max" : [
                0.32763102650642395,
                0.2563726305961609,
                -0.001020675408653915
            ],
            "min" : [
                -0.32763102650642395,
                -0.1939462572336197,
                -1.9963102340698242
            ],
            "type" : "VEC3"
        },
        {
            "bufferView" : 1,
            "componentType" : 5126,
            "count" : 624,
            "type" : "VEC3"
        },
        {
            "bufferView" : 2,
            "componentType" : 5126,
            "count" : 624,
            "type" : "VEC2"
        },
        {
            "bufferView" : 3,
            "componentType" : 5123,
            "count" : 936,
            "type" : "SCALAR"
        }
    ],
    "bufferViews" : [
        {
            "buffer" : 0,
            "byteLength" : 7488,
            "byteOffset" : 0
        },
        {
            "buffer" : 0,
            "byteLength" : 7488,
            "byteOffset" : 7488
        },
        {
            "buffer" : 0,
            "byteLength" : 4992,
            "byteOffset" : 14976
        },
        {
            "buffer" : 0,
            "byteLength" : 1872,
            "byteOffset" : 19968
        }
    ],
    "buffers" : [
        {
            "byteLength" : 21840,
            "uri" : "boxChar1.bin"
        }
    ]
}
