{
    "asset" : {
        "generator" : "Khronos glTF Blender I/O v1.1.46",
        "version" : "2.0"
    },
    "scene" : 0,
    "scenes" : [
        {
            "name" : "Scene",
            "nodes" : [
                0
            ]
        }
    ],
    "nodes" : [
        {
            "mesh" : 0,
            "name" : "Car1"
        }
    ],
    "materials" : [
        {
            "doubleSided" : true,
            "emissiveFactor" : [
                0.007364209741353989,
                0.008296772837638855,
                0.008539916947484016
            ],
            "name" : "Tires1",
            "pbrMetallicRoughness" : {
                "baseColorFactor" : [
                    0.035930536687374115,
                    0.042219534516334534,
                    0.043232452124357224,
                    1
                ],
                "metallicFactor" : 0,
                "roughnessFactor" : 1
            }
        },
        {
            "doubleSided" : true,
            "emissiveFactor" : [
                0.06354914605617523,
                0.08176266402006149,
                0.03544796258211136
            ],
            "name" : "CarFrame1",
            "pbrMetallicRoughness" : {
                "baseColorFactor" : [
                    0.10465549677610397,
                    0.13521414995193481,
                    0.056687839329242706,
                    1
                ],
                "metallicFactor" : 0,
                "roughnessFactor" : 1
            }
        }
    ],
    "meshes" : [
        {
            "name" : "Cube.008",
            "primitives" : [
                {
                    "attributes" : {
                        "POSITION" : 0,
                        "NORMAL" : 1,
                        "TEXCOORD_0" : 2
                    },
                    "indices" : 3,
                    "material" : 0
                },
                {
                    "attributes" : {
                        "POSITION" : 4,
                        "NORMAL" : 5,
                        "TEXCOORD_0" : 6
                    },
                    "indices" : 7,
                    "material" : 1
                }
            ]
        }
    ],
    "accessors" : [
        {
            "bufferView" : 0,
            "componentType" : 5126,
            "count" : 292,
            "max" : [
                1.4647468328475952,
                2.001286029815674,
                3.0123844146728516
            ],
            "min" : [
                -1.4647468328475952,
                -0.009615477174520493,
                -2.419734001159668
            ],
            "type" : "VEC3"
        },
        {
            "bufferView" : 1,
            "componentType" : 5126,
            "count" : 292,
            "type" : "VEC3"
        },
        {
            "bufferView" : 2,
            "componentType" : 5126,
            "count" : 292,
            "type" : "VEC2"
        },
        {
            "bufferView" : 3,
            "componentType" : 5123,
            "count" : 438,
            "type" : "SCALAR"
        },
        {
            "bufferView" : 4,
            "componentType" : 5126,
            "count" : 716,
            "max" : [
                1.2135250568389893,
                2.544496536254883,
                2.9220523834228516
            ],
            "min" : [
                -1.2135250568389893,
                0.6967050433158875,
                -2.5072991847991943
            ],
            "type" : "VEC3"
        },
        {
            "bufferView" : 5,
            "componentType" : 5126,
            "count" : 716,
            "type" : "VEC3"
        },
        {
            "bufferView" : 6,
            "componentType" : 5126,
            "count" : 716,
            "type" : "VEC2"
        },
        {
            "bufferView" : 7,
            "componentType" : 5123,
            "count" : 1074,
            "type" : "SCALAR"
        }
    ],
    "bufferViews" : [
        {
            "buffer" : 0,
            "byteLength" : 3504,
            "byteOffset" : 0
        },
        {
            "buffer" : 0,
            "byteLength" : 3504,
            "byteOffset" : 3504
        },
        {
            "buffer" : 0,
            "byteLength" : 2336,
            "byteOffset" : 7008
        },
        {
            "buffer" : 0,
            "byteLength" : 876,
            "byteOffset" : 9344
        },
        {
            "buffer" : 0,
            "byteLength" : 8592,
            "byteOffset" : 10220
        },
        {
            "buffer" : 0,
            "byteLength" : 8592,
            "byteOffset" : 18812
        },
        {
            "buffer" : 0,
            "byteLength" : 5728,
            "byteOffset" : 27404
        },
        {
            "buffer" : 0,
            "byteLength" : 2148,
            "byteOffset" : 33132
        }
    ],
    "buffers" : [
        {
            "byteLength" : 35280,
            "uri" : "car1.bin"
        }
    ]
}
