{
    "asset" : {
        "generator" : "Khronos glTF Blender I/O v1.1.46",
        "version" : "2.0"
    },
    "scene" : 0,
    "scenes" : [
        {
            "name" : "Scene",
            "nodes" : [
                0
            ]
        }
    ],
    "nodes" : [
        {
            "mesh" : 0,
            "name" : "Stone1",
            "translation" : [
                -8.816761016845703,
                0,
                6.013337135314941
            ]
        }
    ],
    "materials" : [
        {
            "doubleSided" : true,
            "emissiveFactor" : [
                0.2088247388601303,
                0.2498367726802826,
                0.2563607394695282
            ],
            "name" : "Stone1",
            "pbrMetallicRoughness" : {
                "baseColorFactor" : [
                    0.8030690550804138,
                    0.9718366861343384,
                    1,
                    1
                ],
                "metallicFactor" : 0,
                "roughnessFactor" : 1
            }
        }
    ],
    "meshes" : [
        {
            "name" : "Cube.005",
            "primitives" : [
                {
                    "attributes" : {
                        "POSITION" : 0,
                        "NORMAL" : 1,
                        "TEXCOORD_0" : 2
                    },
                    "indices" : 3,
                    "material" : 0
                }
            ]
        }
    ],
    "accessors" : [
        {
            "bufferView" : 0,
            "componentType" : 5126,
            "count" : 48,
            "max" : [
                0.47019827365875244,
                3.6436192989349365,
                0.47019827365875244
            ],
            "min" : [
                -0.47019827365875244,
                0.001426100730895996,
                -0.47019827365875244
            ],
            "type" : "VEC3"
        },
        {
            "bufferView" : 1,
            "componentType" : 5126,
            "count" : 48,
            "type" : "VEC3"
        },
        {
            "bufferView" : 2,
            "componentType" : 5126,
            "count" : 48,
            "type" : "VEC2"
        },
        {
            "bufferView" : 3,
            "componentType" : 5123,
            "count" : 72,
            "type" : "SCALAR"
        }
    ],
    "bufferViews" : [
        {
            "buffer" : 0,
            "byteLength" : 576,
            "byteOffset" : 0
        },
        {
            "buffer" : 0,
            "byteLength" : 576,
            "byteOffset" : 576
        },
        {
            "buffer" : 0,
            "byteLength" : 384,
            "byteOffset" : 1152
        },
        {
            "buffer" : 0,
            "byteLength" : 144,
            "byteOffset" : 1536
        }
    ],
    "buffers" : [
        {
            "byteLength" : 1680,
            "uri" : "stone1.bin"
        }
    ]
}
