{
    "asset" : {
        "generator" : "Khronos glTF Blender I/O v1.1.46",
        "version" : "2.0"
    },
    "scene" : 0,
    "scenes" : [
        {
            "name" : "Scene",
            "nodes" : [
                0
            ]
        }
    ],
    "nodes" : [
        {
            "mesh" : 0,
            "name" : "Terrain1"
        }
    ],
    "materials" : [
        {
            "doubleSided" : true,
            "emissiveFactor" : [
                0,
                0.03968039155006409,
                0.0008774711168371141
            ],
            "name" : "Grass1",
            "pbrMetallicRoughness" : {
                "baseColorFactor" : [
                    0.207528218626976,
                    0.6798933744430542,
                    0.09934109449386597,
                    1
                ],
                "metallicFactor" : 0,
                "roughnessFactor" : 1
            }
        }
    ],
    "meshes" : [
        {
            "name" : "Plane.001",
            "primitives" : [
                {
                    "attributes" : {
                        "POSITION" : 0,
                        "NORMAL" : 1,
                        "TEXCOORD_0" : 2
                    },
                    "indices" : 3,
                    "material" : 0
                }
            ]
        }
    ],
    "accessors" : [
        {
            "bufferView" : 0,
            "componentType" : 5126,
            "count" : 4225,
            "max" : [
                100.00001525878906,
                24.411502838134766,
                100.00001525878906
            ],
            "min" : [
                -100.00001525878906,
                0,
                -100.00001525878906
            ],
            "type" : "VEC3"
        },
        {
            "bufferView" : 1,
            "componentType" : 5126,
            "count" : 4225,
            "type" : "VEC3"
        },
        {
            "bufferView" : 2,
            "componentType" : 5126,
            "count" : 4225,
            "type" : "VEC2"
        },
        {
            "bufferView" : 3,
            "componentType" : 5123,
            "count" : 24576,
            "type" : "SCALAR"
        }
    ],
    "bufferViews" : [
        {
            "buffer" : 0,
            "byteLength" : 50700,
            "byteOffset" : 0
        },
        {
            "buffer" : 0,
            "byteLength" : 50700,
            "byteOffset" : 50700
        },
        {
            "buffer" : 0,
            "byteLength" : 33800,
            "byteOffset" : 101400
        },
        {
            "buffer" : 0,
            "byteLength" : 49152,
            "byteOffset" : 135200
        }
    ],
    "buffers" : [
        {
            "byteLength" : 184352,
            "uri" : "terrain1.bin"
        }
    ]
}
