{
    "asset" : {
        "generator" : "Khronos glTF Blender I/O v1.1.46",
        "version" : "2.0"
    },
    "scene" : 0,
    "scenes" : [
        {
            "name" : "Scene",
            "nodes" : [
                0
            ]
        }
    ],
    "nodes" : [
        {
            "mesh" : 0,
            "name" : "Tree1"
        }
    ],
    "materials" : [
        {
            "doubleSided" : true,
            "emissiveFactor" : [
                0.023651540279388428,
                0.009675636887550354,
                0
            ],
            "name" : "TreeBark1",
            "pbrMetallicRoughness" : {
                "baseColorFactor" : [
                    0.20489880442619324,
                    0.14234286546707153,
                    0.052343789488077164,
                    1
                ],
                "metallicFactor" : 0,
                "roughnessFactor" : 1
            }
        },
        {
            "doubleSided" : true,
            "emissiveFactor" : [
                0,
                0.07227184623479843,
                0.0012141080806031823
            ],
            "name" : "TreeLeaves1",
            "pbrMetallicRoughness" : {
                "baseColorFactor" : [
                    0.1578494757413864,
                    0.8412097692489624,
                    0.03772416338324547,
                    1
                ],
                "metallicFactor" : 0,
                "roughnessFactor" : 1
            }
        }
    ],
    "meshes" : [
        {
            "name" : "Cube.002",
            "primitives" : [
                {
                    "attributes" : {
                        "POSITION" : 0,
                        "NORMAL" : 1,
                        "TEXCOORD_0" : 2
                    },
                    "indices" : 3,
                    "material" : 0
                },
                {
                    "attributes" : {
                        "POSITION" : 4,
                        "NORMAL" : 5,
                        "TEXCOORD_0" : 6
                    },
                    "indices" : 7,
                    "material" : 1
                }
            ]
        }
    ],
    "accessors" : [
        {
            "bufferView" : 0,
            "componentType" : 5126,
            "count" : 120,
            "max" : [
                0.20820912718772888,
                5.089621543884277,
                1.1295193433761597
            ],
            "min" : [
                -1.1923538446426392,
                0.0050147175788879395,
                -0.9400341510772705
            ],
            "type" : "VEC3"
        },
        {
            "bufferView" : 1,
            "componentType" : 5126,
            "count" : 120,
            "type" : "VEC3"
        },
        {
            "bufferView" : 2,
            "componentType" : 5126,
            "count" : 120,
            "type" : "VEC2"
        },
        {
            "bufferView" : 3,
            "componentType" : 5123,
            "count" : 180,
            "type" : "SCALAR"
        },
        {
            "bufferView" : 4,
            "componentType" : 5126,
            "count" : 42,
            "max" : [
                2.6331446170806885,
                8.335281372070312,
                3.8898937702178955
            ],
            "min" : [
                -3.0734453201293945,
                3.3174915313720703,
                -1.7862956523895264
            ],
            "type" : "VEC3"
        },
        {
            "bufferView" : 5,
            "componentType" : 5126,
            "count" : 42,
            "type" : "VEC3"
        },
        {
            "bufferView" : 6,
            "componentType" : 5126,
            "count" : 42,
            "type" : "VEC2"
        },
        {
            "bufferView" : 7,
            "componentType" : 5123,
            "count" : 108,
            "type" : "SCALAR"
        }
    ],
    "bufferViews" : [
        {
            "buffer" : 0,
            "byteLength" : 1440,
            "byteOffset" : 0
        },
        {
            "buffer" : 0,
            "byteLength" : 1440,
            "byteOffset" : 1440
        },
        {
            "buffer" : 0,
            "byteLength" : 960,
            "byteOffset" : 2880
        },
        {
            "buffer" : 0,
            "byteLength" : 360,
            "byteOffset" : 3840
        },
        {
            "buffer" : 0,
            "byteLength" : 504,
            "byteOffset" : 4200
        },
        {
            "buffer" : 0,
            "byteLength" : 504,
            "byteOffset" : 4704
        },
        {
            "buffer" : 0,
            "byteLength" : 336,
            "byteOffset" : 5208
        },
        {
            "buffer" : 0,
            "byteLength" : 216,
            "byteOffset" : 5544
        }
    ],
    "buffers" : [
        {
            "byteLength" : 5760,
            "uri" : "tree1.bin"
        }
    ]
}
