{
    "asset" : {
        "generator" : "Khronos glTF Blender I/O v1.3.48",
        "version" : "2.0"
    },
    "scene" : 0,
    "scenes" : [
        {
            "name" : "Scene",
            "nodes" : [
                20
            ]
        }
    ],
    "nodes" : [
        {
            "name" : "ArmL_L",
            "rotation" : [
                -0.020957069471478462,
                -2.2943015665077837e-07,
                2.064384716504719e-07,
                0.9997804164886475
            ],
            "scale" : [
                0.9999999403953552,
                0.9999969601631165,
                1
            ],
            "translation" : [
                2.8983583533204182e-08,
                0.3013380467891693,
                -2.5723136953814674e-09
            ]
        },
        {
            "children" : [
                0
            ],
            "name" : "ArmU_L",
            "rotation" : [
                -0.9999498724937439,
                -1.7088389370201185e-07,
                4.156926802778571e-09,
                0.010021720081567764
            ],
            "scale" : [
                1,
                1,
                0.9996590614318848
            ],
            "translation" : [
                0.2648470103740692,
                1.64195716381073,
                -0.10682101547718048
            ]
        },
        {
            "name" : "TorsoU",
            "rotation" : [
                -3.552713678800501e-15,
                0,
                0,
                1
            ],
            "scale" : [
                1,
                0.9999995827674866,
                1
            ],
            "translation" : [
                0,
                0.3032132387161255,
                -1.862645149230957e-09
            ]
        },
        {
            "children" : [
                2
            ],
            "name" : "TorsoL",
            "rotation" : [
                2.1855690590655286e-08,
                0,
                0,
                1
            ],
            "scale" : [
                1,
                1.0000003576278687,
                1
            ],
            "translation" : [
                0,
                1.0754685401916504,
                -0.02531135268509388
            ]
        },
        {
            "name" : "Head",
            "rotation" : [
                0.002844387199729681,
                0,
                0,
                0.9999959468841553
            ],
            "translation" : [
                0,
                1.7577016353607178,
                -0.02531135082244873
            ]
        },
        {
            "name" : "ArmL_R",
            "rotation" : [
                -0.020957307890057564,
                1.5896697846962127e-10,
                -4.6396969599626914e-10,
                0.9997804164886475
            ],
            "scale" : [
                0.9999999403953552,
                0.9999985098838806,
                0.9999998807907104
            ],
            "translation" : [
                -5.8785907697256334e-08,
                0.3013380467891693,
                -1.0016340645790933e-08
            ]
        },
        {
            "children" : [
                5
            ],
            "name" : "ArmU_R",
            "rotation" : [
                -0.9999498128890991,
                7.145347780124212e-08,
                -2.4495494699294795e-07,
                0.010018865577876568
            ],
            "scale" : [
                1,
                0.9999993443489075,
                0.9996590614318848
            ],
            "translation" : [
                -0.2648470103740692,
                1.64195716381073,
                -0.10682101547718048
            ]
        },
        {
            "name" : "Hand_L",
            "rotation" : [
                1,
                -4.253000724929734e-07,
                -4.2386517407067004e-07,
                -1.7943767716133152e-06
            ],
            "scale" : [
                1,
                0.9999999403953552,
                0.9999999403953552
            ],
            "translation" : [
                0.2648470401763916,
                1.0646198987960815,
                -0.10682100057601929
            ]
        },
        {
            "name" : "LegL_L",
            "rotation" : [
                0.029554592445492744,
                -5.974232644234776e-15,
                1.1606215908659058e-15,
                0.9995632767677307
            ],
            "scale" : [
                1,
                1.0000004768371582,
                1.0000001192092896
            ],
            "translation" : [
                -1.2688372130753578e-08,
                0.4152801036834717,
                6.096025906288105e-09
            ]
        },
        {
            "children" : [
                8
            ],
            "name" : "LegU_L",
            "rotation" : [
                1,
                1.3008880195286565e-08,
                -3.6681491621948226e-08,
                3.1987892157303577e-07
            ],
            "scale" : [
                1,
                0.9999997615814209,
                1
            ],
            "translation" : [
                0.11969494819641113,
                1.0754685401916504,
                -0.02531135268509388
            ]
        },
        {
            "name" : "Toe_L",
            "rotation" : [
                1.096463808636372e-08,
                0.9680281281471252,
                -0.2508416473865509,
                -4.2313857306908176e-08
            ],
            "scale" : [
                1,
                1.0000020265579224,
                0.9999995827674866
            ],
            "translation" : [
                -1.4901160305669237e-08,
                0.17433032393455505,
                2.0476539575042807e-08
            ]
        },
        {
            "children" : [
                10
            ],
            "name" : "Heel_L",
            "rotation" : [
                0.8618710041046143,
                7.912982222277808e-31,
                1.0301031909815108e-30,
                0.507127583026886
            ],
            "scale" : [
                1,
                1.000000238418579,
                1
            ],
            "translation" : [
                0.11969496309757233,
                0.1274677962064743,
                -0.05684076249599457
            ]
        },
        {
            "name" : "LegL_R",
            "rotation" : [
                0.029554592445492744,
                -7.675004498586789e-15,
                -1.9493607777780995e-15,
                0.9995632767677307
            ],
            "scale" : [
                1,
                1.0000004768371582,
                1.0000001192092896
            ],
            "translation" : [
                1.7113949368763315e-08,
                0.4152801036834717,
                4.672414011253068e-09
            ]
        },
        {
            "children" : [
                12
            ],
            "name" : "LegU_R",
            "rotation" : [
                1,
                -1.1555075118963032e-08,
                -7.029896664789703e-09,
                3.1987892157303577e-07
            ],
            "scale" : [
                1,
                0.9999997615814209,
                1
            ],
            "translation" : [
                -0.11969494819641113,
                1.0754685401916504,
                -0.02531135268509388
            ]
        },
        {
            "name" : "Neck",
            "rotation" : [
                -3.552713678800501e-15,
                0,
                0,
                1
            ],
            "scale" : [
                1,
                0.9999999403953552,
                1
            ],
            "translation" : [
                0,
                1.6959079504013062,
                -0.02531135268509388
            ]
        },
        {
            "name" : "Toe_R",
            "rotation" : [
                1.096463808636372e-08,
                0.9680281281471252,
                -0.2508416473865509,
                -4.2313857306908176e-08
            ],
            "scale" : [
                1,
                1.0000020265579224,
                0.9999995827674866
            ],
            "translation" : [
                1.4901162970204496e-08,
                0.17433032393455505,
                2.0476539575042807e-08
            ]
        },
        {
            "children" : [
                15
            ],
            "name" : "Heel_R",
            "rotation" : [
                0.8618710041046143,
                7.912982222277808e-31,
                1.0301031909815108e-30,
                0.507127583026886
            ],
            "scale" : [
                1,
                1.000000238418579,
                1
            ],
            "translation" : [
                -0.11969496309757233,
                0.1274677962064743,
                -0.05684076249599457
            ]
        },
        {
            "name" : "Hand_R",
            "rotation" : [
                1,
                3.1587381954523153e-07,
                4.341767407822772e-07,
                -1.4367485619004583e-06
            ],
            "scale" : [
                1,
                0.9999999403953552,
                0.9999999403953552
            ],
            "translation" : [
                -0.2648470401763916,
                1.0646198987960815,
                -0.10682100057601929
            ]
        },
        {
            "children" : [
                1,
                3,
                4,
                6,
                7,
                9,
                11,
                13,
                14,
                16,
                17
            ],
            "name" : "Root",
            "scale" : [
                1,
                0.9999999403953552,
                0.9999999403953552
            ]
        },
        {
            "mesh" : 0,
            "name" : "BoxChar1",
            "skin" : 0
        },
        {
            "children" : [
                19,
                18
            ],
            "name" : "Armature"
        }
    ],
    "meshes" : [
        {
            "name" : "Cube",
            "primitives" : [
                {
                    "attributes" : {
                        "POSITION" : 0,
                        "NORMAL" : 1,
                        "TEXCOORD_0" : 2,
                        "JOINTS_0" : 3,
                        "WEIGHTS_0" : 4
                    },
                    "indices" : 5
                }
            ]
        }
    ],
    "skins" : [
        {
            "inverseBindMatrices" : 6,
            "joints" : [
                18,
                1,
                0,
                3,
                2,
                4,
                6,
                5,
                7,
                9,
                8,
                11,
                10,
                13,
                12,
                14,
                16,
                15,
                17
            ],
            "name" : "Armature"
        }
    ],
    "accessors" : [
        {
            "bufferView" : 0,
            "componentType" : 5126,
            "count" : 528,
            "max" : [
                0.32763102650642395,
                1.9963102340698242,
                0.2563726305961609
            ],
            "min" : [
                -0.32763102650642395,
                0.001020675408653915,
                -0.1939462572336197
            ],
            "type" : "VEC3"
        },
        {
            "bufferView" : 1,
            "componentType" : 5126,
            "count" : 528,
            "type" : "VEC3"
        },
        {
            "bufferView" : 2,
            "componentType" : 5126,
            "count" : 528,
            "type" : "VEC2"
        },
        {
            "bufferView" : 3,
            "componentType" : 5123,
            "count" : 528,
            "type" : "VEC4"
        },
        {
            "bufferView" : 4,
            "componentType" : 5126,
            "count" : 528,
            "type" : "VEC4"
        },
        {
            "bufferView" : 5,
            "componentType" : 5123,
            "count" : 792,
            "type" : "SCALAR"
        },
        {
            "bufferView" : 6,
            "componentType" : 5126,
            "count" : 19,
            "type" : "MAT4"
        }
    ],
    "bufferViews" : [
        {
            "buffer" : 0,
            "byteLength" : 6336,
            "byteOffset" : 0
        },
        {
            "buffer" : 0,
            "byteLength" : 6336,
            "byteOffset" : 6336
        },
        {
            "buffer" : 0,
            "byteLength" : 4224,
            "byteOffset" : 12672
        },
        {
            "buffer" : 0,
            "byteLength" : 4224,
            "byteOffset" : 16896
        },
        {
            "buffer" : 0,
            "byteLength" : 8448,
            "byteOffset" : 21120
        },
        {
            "buffer" : 0,
            "byteLength" : 1584,
            "byteOffset" : 29568
        },
        {
            "buffer" : 0,
            "byteLength" : 1216,
            "byteOffset" : 31152
        }
    ],
    "buffers" : [
        {
            "byteLength" : 32368,
            "uri" : "boxchar.bin"
        }
    ]
}
